PathFileType	4	(X/Y/Z)	C:/Users/opensim2020/Desktop/walking_exp_matlab/subject06_walking19_straight_02.trc																																																																																																																																																	
DataRate	CameraRate	NumFrames	NumMarkers	Units	OrigDataRate	OrigDataStartFrame	OrigNumFrames																																																																																																																																													
100	100	5	49	mm	100	2359	332																																																																																																																																													
Frame#	Time	LFHD			RFHD			LBHD			RBHD			C7			T10			CLAV			STRN			RBAK			LSHO			LUPA			LELB			LFRM			LWRA			LWRB			LFIN			RSHO			RUPA			RELB			RFRM			RWRA			RWRB			RFIN			LASI			RASI			LPSI			RPSI			LTHI			LKNE			LTIB			LANK			LHEE			LTOE			RTHI			RKNE			RTIB			RANK			RHEE			RTOE			*39			*40			*41			*42			*43			*44			*45			*46			*47			*48		
		X1	Y1	Z1	X2	Y2	Z2	X3	Y3	Z3	X4	Y4	Z4	X5	Y5	Z5	X6	Y6	Z6	X7	Y7	Z7	X8	Y8	Z8	X9	Y9	Z9	X10	Y10	Z10	X11	Y11	Z11	X12	Y12	Z12	X13	Y13	Z13	X14	Y14	Z14	X15	Y15	Z15	X16	Y16	Z16	X17	Y17	Z17	X18	Y18	Z18	X19	Y19	Z19	X20	Y20	Z20	X21	Y21	Z21	X22	Y22	Z22	X23	Y23	Z23	X24	Y24	Z24	X25	Y25	Z25	X26	Y26	Z26	X27	Y27	Z27	X28	Y28	Z28	X29	Y29	Z29	X30	Y30	Z30	X31	Y31	Z31	X32	Y32	Z32	X33	Y33	Z33	X34	Y34	Z34	X35	Y35	Z35	X36	Y36	Z36	X37	Y37	Z37	X38	Y38	Z38	X39	Y39	Z39	X40	Y40	Z40	X41	Y41	Z41	X42	Y42	Z42	X43	Y43	Z43	X44	Y44	Z44	X45	Y45	Z45	X46	Y46	Z46	X47	Y47	Z47	X48	Y48	Z48	X49	Y49	Z49
																																																																																																																																																				
167	1.66	-296.9967	1668.67432	905.59204	-284.79123	1663.4613	1037.27222	-423.03729	1600.97314	918.89502	-409.8681	1600.48755	1047.60461	-407.43539	1453.61267	970.0177	-439.47598	1125.27588	980.85327	-297.12546	1378.2218	973.08368	-257.53912	1202.22754	968.57465	-480.21991	1284.20984	1048.52539	-342.51096	1410.68042	810.75238	-312.36823	1211.40259	734.51892	-290.62711	1100.99194	719.27588	-213.88873	970.65656	705.71613	-120.95496	888.85754	758.72766	-170.23424	859.83325	717.14923	-99.946	802.91028	722.61578	-344.30762	1407.9917	1133.40942	-379.05313	1208.93518	1220.1543	-369.86935	1087.12927	1231.95349	-359.52237	967.30701	1250.54211	-309.59402	823.66626	1220.73889	-361.62585	829.43372	1263.28625	-329.29828	751.21582	1265.8418	-261.41443	962.2774	877.47107	-259.75049	977.86755	1098.80591	-418.36267	991.90186	907.1463	-412.06635	996.96338	1075.26672	-350.4624	648.68719	836.03314	-369.37311	485.43402	861.30023	-421.75128	233.58369	882.17944	-430.27939	63.9351	937.33185	-467.95602	51.48972	984.60547	-284.6897	34.65295	935.146	-247.35265	650.17871	1167.76123	-204.98888	530.86902	1145.05579	-262.71609	274.69574	1149.38416	-287.14911	87.80661	1113.57947	-322.97818	61.26062	1066.04065	-136.74651	49.65628	1129.13293	-395.30484	1699.03284	972.25757	NaN	NaN	NaN	NaN	NaN	NaN	NaN	NaN	NaN	NaN	NaN	NaN	NaN	NaN	NaN	NaN	NaN	NaN	NaN	NaN	NaN	NaN	NaN	NaN	NaN	NaN	NaN
168	1.67	-291.38721	1668.46436	905.60986	-279.46133	1663.12512	1037.34131	-417.41623	1600.70496	918.37726	-404.25549	1600.11755	1047.07117	-402.07724	1453.4552	969.63031	-434.43295	1125.11768	980.30933	-291.8309	1377.94775	972.82159	-252.37459	1201.93652	968.12122	-475.18045	1284.03113	1047.7981	-336.78256	1410.68396	810.42065	-306.04446	1211.51782	734.25714	-283.83899	1101.05469	719.29205	-205.31665	971.69751	706.45593	-111.38738	891.57996	760.36902	-160.43617	861.39337	718.98785	-89.40559	805.68719	725.11328	-339.25909	1407.60608	1133.07141	-375.10257	1208.71191	1219.71692	-366.42218	1086.91077	1231.72119	-356.89764	967.06995	1250.51514	-307.78113	822.9787	1221.1792	-360.05634	829.08344	1263.26563	-328.06143	750.69653	1266.12427	-256.4469	961.94641	876.88257	-254.63742	977.67761	1098.25427	-413.49423	991.55078	906.62726	-407.02872	996.75269	1074.77954	-346.44717	648.39136	835.84442	-366.04614	485.19235	861.20331	-420.1048	233.80679	882.10449	-429.93793	64.10196	937.38416	-467.76038	51.77038	984.58539	-284.56628	34.57521	935.15802	-241.93953	650.00555	1167.56726	-199.18898	530.81403	1144.16687	-248.77193	272.99133	1148.68359	-266.77896	85.56844	1112.8407	-302.0618	58.32295	1065.10461	-114.86342	49.53167	1125.59436	-389.84534	1698.80334	972.133	NaN	NaN	NaN	NaN	NaN	NaN	NaN	NaN	NaN	NaN	NaN	NaN	NaN	NaN	NaN	NaN	NaN	NaN	NaN	NaN	NaN	NaN	NaN	NaN	NaN	NaN	NaN
169	1.68	-285.76721	1668.24719	905.71606	-273.98697	1662.71716	1037.38232	-411.76138	1600.49854	918.32324	-398.6825	1599.76172	1046.70166	-396.72958	1453.25793	969.24451	-429.34467	1124.89063	979.82098	-286.49826	1377.63	972.56006	-247.20561	1201.6095	967.68915	-470.0582	1283.80676	1047.15002	-331.09302	1410.59656	810.14856	-299.77765	1211.5636	734.07111	-277.03677	1101.12146	719.26318	-197.29321	972.53827	707.36816	-102.42861	894.01837	762.22424	-150.4261	862.96088	720.97076	-79.09618	808.2002	727.6449	-334.16461	1407.16772	1132.79602	-371.11179	1208.48657	1219.26025	-362.90796	1086.66724	1231.53149	-354.19885	966.80176	1250.54358	-305.8978	822.28113	1221.6947	-358.46646	828.88629	1263.58801	-327.05032	750.32837	1266.85242	-251.62732	961.40546	876.15643	-249.25816	977.55212	1097.58691	-408.66364	991.21429	906.20001	-401.87567	996.48596	1074.30383	-342.39761	648.06635	835.70258	-362.52368	484.94659	861.15802	-418.19626	233.76494	882.08295	-429.5365	64.32318	937.50732	-468.04083	52.59838	984.85785	-284.40054	34.46419	935.11279	-237.11972	649.90704	1167.28894	-194.02754	530.80859	1144.12854	-235.00008	271.47672	1148.00171	-246.67142	83.55387	1111.80884	-281.69379	56.02022	1064.39954	-93.54491	49.58445	1121.90857	-384.4491	1698.53967	972.19574	NaN	NaN	NaN	NaN	NaN	NaN	NaN	NaN	NaN	NaN	NaN	NaN	NaN	NaN	NaN	NaN	NaN	NaN	NaN	NaN	NaN	NaN	NaN	NaN	NaN	NaN	NaN
170	1.69	-280.11365	1667.98926	905.83698	-268.6955	1662.30579	1037.57776	-406.20795	1600.2323	917.96643	-393.59631	1599.3877	1046.71912	-391.24524	1453.00708	968.92535	-424.27301	1124.66943	979.33307	-281.08679	1377.28394	972.39575	-242.00465	1201.27979	967.31476	-464.73697	1283.51074	1046.50879	-325.31909	1410.47192	809.88794	-293.57996	1211.52283	733.9989	-270.2829	1101.14941	719.26733	-188.98753	973.51642	708.32373	-93.62371	896.42303	764.099	-140.97391	864.5871	722.75739	-69.05421	810.53253	730.28381	-329.03287	1406.73706	1132.5863	-366.9874	1208.17908	1218.93372	-359.33765	1086.38379	1231.38562	-351.41309	966.51654	1250.61951	-303.91699	821.59863	1222.23401	-356.67923	828.63275	1263.85303	-325.80148	749.86218	1267.43225	-246.72681	961.03339	875.49695	-243.90521	977.28186	1097.00891	-403.61206	990.77747	905.797	-396.51797	996.13574	1073.8822	-338.22641	647.75415	835.46692	-358.7876	484.71411	861.15729	-416.43231	233.92445	882.08197	-429.03894	64.53972	937.68542	-467.78635	53.05888	985.0202	-284.12378	34.3326	935.10516	-232.06194	649.53143	1166.98682	-188.66345	530.49725	1143.46863	-221.48573	270.11038	1147.34058	-226.78972	81.94692	1110.95752	-261.17767	53.8512	1063.78906	-72.5965	50.07554	1118.40515	-378.77295	1698.19287	972.052	NaN	NaN	NaN	NaN	NaN	NaN	NaN	NaN	NaN	NaN	NaN	NaN	NaN	NaN	NaN	NaN	NaN	NaN	NaN	NaN	NaN	NaN	NaN	NaN	NaN	NaN	NaN
171	1.7	-274.48337	1667.66724	906.02344	-263.24557	1661.83276	1037.80884	-400.6333	1599.9895	917.87567	-388.28061	1598.98022	1046.75281	-385.80554	1452.74561	968.69012	-419.20282	1124.41357	978.9751	-275.77133	1376.91455	972.24994	-236.7856	1200.85999	966.90405	-459.46188	1283.20447	1045.97998	-319.59509	1410.25562	809.73419	-287.37387	1211.39368	733.94922	-263.69699	1101.01697	719.34338	-181.02129	974.15619	709.26306	-85.02062	898.56439	765.95898	-131.75284	865.85083	724.45709	-59.29509	812.71075	732.87561	-323.85794	1406.2439	1132.41956	-362.78763	1207.90051	1218.77515	-355.76407	1086.08923	1231.29688	-348.5675	966.17499	1250.7345	-301.94885	820.87109	1222.86401	-354.75391	828.32373	1264.14893	-324.38229	749.38989	1267.93762	-242.01413	960.55182	874.81818	-238.50096	977.03778	1096.30127	-398.59933	990.37323	905.50659	-391.07584	995.77094	1073.53638	-333.84872	647.3075	835.1369	-354.98679	484.41806	861.15515	-414.40521	233.98561	882.1496	-428.53436	64.78397	937.87061	-467.64032	53.6497	985.32019	-283.92358	34.22981	935.10657	-227.07281	649.133	1166.76685	-183.55171	530.13135	1142.94348	-208.3493	268.93939	1146.66553	-207.33569	80.71573	1110.16003	-241.50578	52.44464	1063.26685	-52.05571	50.87545	1115.00281	-373.25604	1697.83423	972.06793	NaN	NaN	NaN	NaN	NaN	NaN	NaN	NaN	NaN	NaN	NaN	NaN	NaN	NaN	NaN	NaN	NaN	NaN	NaN	NaN	NaN	NaN	NaN	NaN	NaN	NaN	NaN
